<svg width="24" height="17" viewBox="0 0 24 17" fill="none" xmlns="http://www.w3.org/2000/svg">
<path d="M11.9272 1.00127C9.71361 1.0033 7.5436 1.6168 5.65662 2.77408C3.76964 3.93135 2.23903 5.58742 1.23369 7.55955C1.08099 7.85337 1.00127 8.17963 1.00127 8.51076C1.00127 8.84188 1.08099 9.16814 1.23369 9.46196C2.24198 11.4301 3.77386 13.0817 5.66062 14.2351C7.54739 15.3884 9.71585 15.9987 11.9272 15.9987C14.1386 15.9987 16.307 15.3884 18.1938 14.2351C20.0806 13.0817 21.6124 11.4301 22.6207 9.46196C22.7734 9.16814 22.8531 8.84188 22.8531 8.51076C22.8531 8.17963 22.7734 7.85337 22.6207 7.55955C21.6154 5.58742 20.0848 3.93135 18.1978 2.77408C16.3108 1.6168 14.1408 1.0033 11.9272 1.00127V1.00127Z" stroke="#91919F" stroke-width="2" stroke-linecap="round" stroke-linejoin="round"/>
</svg>
