<svg width="27" height="27" viewBox="0 0 27 27" fill="none" xmlns="http://www.w3.org/2000/svg">
<path d="M26.7374 10.856H25.65V10.8H13.5V16.2H21.1295C20.0165 19.3435 17.0255 21.6 13.5 21.6C9.02678 21.6 5.4 17.9732 5.4 13.5C5.4 9.02678 9.02678 5.4 13.5 5.4C15.5648 5.4 17.4434 6.17895 18.8737 7.45133L22.6922 3.63285C20.2811 1.38578 17.0559 0 13.5 0C6.04463 0 0 6.04463 0 13.5C0 20.9554 6.04463 27 13.5 27C20.9554 27 27 20.9554 27 13.5C27 12.5948 26.9069 11.7113 26.7374 10.856Z" fill="#FFC107"/>
</svg>
