<svg width="57" height="57" viewBox="0 0 57 57" fill="none" xmlns="http://www.w3.org/2000/svg">
<mask id="path-1-inside-1_0_124" fill="white">
<path d="M29.7558 29.7558L39.8376 29.7558C40.0107 29.7691 40.1847 29.7466 40.3486 29.6896C40.5126 29.6325 40.663 29.5422 40.7904 29.4243C40.9178 29.3064 41.0194 29.1634 41.0889 29.0044C41.1584 28.8453 41.1943 28.6736 41.1943 28.5C41.1943 28.3264 41.1584 28.1547 41.0889 27.9956C41.0194 27.8365 40.9178 27.6936 40.7904 27.5756C40.663 27.4577 40.5126 27.3674 40.3486 27.3104C40.1847 27.2533 40.0107 27.2308 39.8376 27.2442L29.7558 27.2442L29.7558 17.1623C29.7313 16.846 29.5884 16.5506 29.3556 16.3351C29.1228 16.1196 28.8172 15.9999 28.5 15.9999C28.1828 15.9999 27.8772 16.1196 27.6444 16.3351C27.4116 16.5506 27.2687 16.846 27.2442 17.1623L27.2442 27.2442L17.1623 27.2442C16.8296 27.2452 16.5107 27.3778 16.2754 27.6131C16.0402 27.8484 15.9075 28.1672 15.9065 28.5C15.9075 28.8327 16.0402 29.1516 16.2754 29.3869C16.5107 29.6221 16.8296 29.7548 17.1623 29.7558L27.2442 29.7558L27.2442 39.8376C27.2452 40.1704 27.3778 40.4892 27.6131 40.7245C27.8484 40.9598 28.1672 41.0924 28.5 41.0934C28.8327 41.0924 29.1516 40.9598 29.3869 40.7245C29.6222 40.4892 29.7548 40.1704 29.7558 39.8376V29.7558Z"/>
</mask>
<path d="M29.7558 29.7558L39.8376 29.7558C40.0107 29.7691 40.1847 29.7466 40.3486 29.6896C40.5126 29.6325 40.663 29.5422 40.7904 29.4243C40.9178 29.3064 41.0194 29.1634 41.0889 29.0044C41.1584 28.8453 41.1943 28.6736 41.1943 28.5C41.1943 28.3264 41.1584 28.1547 41.0889 27.9956C41.0194 27.8365 40.9178 27.6936 40.7904 27.5756C40.663 27.4577 40.5126 27.3674 40.3486 27.3104C40.1847 27.2533 40.0107 27.2308 39.8376 27.2442L29.7558 27.2442L29.7558 17.1623C29.7313 16.846 29.5884 16.5506 29.3556 16.3351C29.1228 16.1196 28.8172 15.9999 28.5 15.9999C28.1828 15.9999 27.8772 16.1196 27.6444 16.3351C27.4116 16.5506 27.2687 16.846 27.2442 17.1623L27.2442 27.2442L17.1623 27.2442C16.8296 27.2452 16.5107 27.3778 16.2754 27.6131C16.0402 27.8484 15.9075 28.1672 15.9065 28.5C15.9075 28.8327 16.0402 29.1516 16.2754 29.3869C16.5107 29.6221 16.8296 29.7548 17.1623 29.7558L27.2442 29.7558L27.2442 39.8376C27.2452 40.1704 27.3778 40.4892 27.6131 40.7245C27.8484 40.9598 28.1672 41.0924 28.5 41.0934C28.8327 41.0924 29.1516 40.9598 29.3869 40.7245C29.6222 40.4892 29.7548 40.1704 29.7558 39.8376V29.7558Z" fill="black"/>
<path d="M29.7558 29.7558L29.7558 27.2367H27.2367L27.2367 29.7558L29.7558 29.7558ZM39.8376 29.7558L40.032 27.2442L39.9349 27.2367L39.8376 27.2367L39.8376 29.7558ZM39.8376 27.2442L39.8376 29.7633H39.9349L40.032 29.7558L39.8376 27.2442ZM29.7558 27.2442L27.2367 27.2442L27.2367 29.7633L29.7558 29.7633L29.7558 27.2442ZM29.7558 17.1623L32.2748 17.1623V17.065L32.2673 16.968L29.7558 17.1623ZM27.2442 17.1623L24.7326 16.968L24.7251 17.065V17.1623L27.2442 17.1623ZM27.2442 27.2442L27.2442 29.7633L29.7633 29.7633L29.7633 27.2442H27.2442ZM17.1623 27.2442L17.1623 24.7251L17.1548 24.7251L17.1623 27.2442ZM15.9065 28.5L13.3875 28.4925L13.3875 28.5L13.3875 28.5075L15.9065 28.5ZM17.1623 29.7558L17.1548 32.2748L17.1623 32.2748L17.1623 29.7558ZM27.2442 29.7558L29.7633 29.7558V27.2367L27.2442 27.2367L27.2442 29.7558ZM27.2442 39.8376L24.7251 39.8376L24.7251 39.8451L27.2442 39.8376ZM28.5 41.0934L28.4925 43.6125L28.5 43.6125L28.5075 43.6125L28.5 41.0934ZM29.7558 39.8376L32.2748 39.8451L32.2748 39.8376L29.7558 39.8376ZM29.7558 32.2748L39.8376 32.2748L39.8376 27.2367L29.7558 27.2367L29.7558 32.2748ZM39.6433 32.2673C40.1626 32.3075 40.6845 32.2399 41.1763 32.0688L39.5209 27.3104C39.6849 27.2533 39.8589 27.2308 40.032 27.2442L39.6433 32.2673ZM41.1763 32.0688C41.6682 31.8977 42.1194 31.6267 42.5016 31.273L39.0792 27.5756C39.2066 27.4577 39.357 27.3674 39.5209 27.3104L41.1763 32.0688ZM42.5016 31.273C42.8837 30.9192 43.1887 30.4903 43.3972 30.0131L38.7807 27.9956C38.8502 27.8365 38.9518 27.6936 39.0792 27.5756L42.5016 31.273ZM43.3972 30.0131C43.6057 29.5359 43.7134 29.0208 43.7134 28.5L38.6753 28.5C38.6753 28.3264 38.7111 28.1547 38.7807 27.9956L43.3972 30.0131ZM43.7134 28.5C43.7134 27.9792 43.6057 27.464 43.3972 26.9869L38.7807 29.0044C38.7111 28.8453 38.6753 28.6736 38.6753 28.5L43.7134 28.5ZM43.3972 26.9869C43.1887 26.5097 42.8837 26.0807 42.5016 25.727L39.0792 29.4243C38.9518 29.3064 38.8502 29.1634 38.7807 29.0044L43.3972 26.9869ZM42.5016 25.727C42.1194 25.3732 41.6682 25.1023 41.1763 24.9312L39.5209 29.6896C39.357 29.6325 39.2066 29.5422 39.0792 29.4243L42.5016 25.727ZM41.1763 24.9312C40.6845 24.7601 40.1625 24.6925 39.6433 24.7326L40.032 29.7558C39.8589 29.7691 39.6849 29.7466 39.5209 29.6896L41.1763 24.9312ZM39.8376 24.7251L29.7558 24.7251L29.7558 29.7633L39.8376 29.7633L39.8376 24.7251ZM32.2748 27.2442L32.2748 17.1623L27.2367 17.1623L27.2367 27.2442L32.2748 27.2442ZM32.2673 16.968C32.1939 16.0192 31.7652 15.1329 31.0667 14.4865L27.6444 18.1838C27.4116 17.9683 27.2687 17.6729 27.2442 17.3566L32.2673 16.968ZM31.0667 14.4865C30.3683 13.84 29.4517 13.4809 28.5 13.4809L28.5 18.519C28.1828 18.519 27.8772 18.3993 27.6444 18.1838L31.0667 14.4865ZM28.5 13.4809C27.5483 13.4809 26.6316 13.84 25.9332 14.4865L29.3556 18.1838C29.1228 18.3993 28.8172 18.519 28.5 18.519L28.5 13.4809ZM25.9332 14.4865C25.2348 15.1329 24.806 16.0192 24.7326 16.968L29.7558 17.3566C29.7313 17.6729 29.5884 17.9683 29.3556 18.1838L25.9332 14.4865ZM24.7251 17.1623L24.7251 27.2442L29.7633 27.2442L29.7633 17.1623L24.7251 17.1623ZM27.2442 24.7251L17.1623 24.7251L17.1623 29.7633L27.2442 29.7633L27.2442 24.7251ZM17.1548 24.7251C16.1566 24.7281 15.2001 25.126 14.4942 25.8318L18.0567 29.3943C17.8214 29.6296 17.5026 29.7623 17.1698 29.7633L17.1548 24.7251ZM14.4942 25.8318C13.7883 26.5377 13.3905 27.4942 13.3875 28.4925L18.4256 28.5075C18.4246 28.8402 18.292 29.1591 18.0567 29.3943L14.4942 25.8318ZM13.3875 28.5075C13.3905 29.5057 13.7883 30.4622 14.4942 31.1681L18.0567 27.6056C18.292 27.8409 18.4246 28.1597 18.4256 28.4925L13.3875 28.5075ZM14.4942 31.1681C15.2001 31.874 16.1566 32.2718 17.1548 32.2748L17.1698 27.2367C17.5026 27.2377 17.8214 27.3703 18.0567 27.6056L14.4942 31.1681ZM17.1623 32.2748L27.2442 32.2748L27.2442 27.2367L17.1623 27.2367L17.1623 32.2748ZM24.7251 29.7558L24.7251 39.8376L29.7633 39.8376L29.7633 29.7558L24.7251 29.7558ZM24.7251 39.8451C24.7281 40.8434 25.126 41.7999 25.8319 42.5058L29.3944 38.9433C29.6296 39.1785 29.7623 39.4974 29.7633 39.8301L24.7251 39.8451ZM25.8319 42.5058C26.5377 43.2116 27.4942 43.6095 28.4925 43.6125L28.5075 38.5744C28.8402 38.5753 29.1591 38.708 29.3944 38.9433L25.8319 42.5058ZM28.5075 43.6125C29.5057 43.6095 30.4622 43.2116 31.1681 42.5058L27.6056 38.9433C27.8409 38.708 28.1597 38.5753 28.4925 38.5744L28.5075 43.6125ZM31.1681 42.5058C31.874 41.7999 32.2719 40.8434 32.2748 39.8451L27.2367 39.8301C27.2377 39.4974 27.3703 39.1785 27.6056 38.9433L31.1681 42.5058ZM32.2748 39.8376L32.2748 29.7558L27.2367 29.7558L27.2367 39.8376L32.2748 39.8376Z" fill="#FCFCFC" mask="url(#path-1-inside-1_0_124)"/>
</svg>
